<svg id="Calque_1" data-name="Calque 1" xmlns="http://www.w3.org/2000/svg" xmlns:xlink="http://www.w3.org/1999/xlink" viewBox="0 0 409.68 202.44"><defs><style>.cls-1{fill:url(#linear-gradient);}.cls-2{fill:url(#linear-gradient-2);}.cls-3{fill:#f39200;}.cls-4{fill:#1d1d1b;}</style><linearGradient id="linear-gradient" x1="68.94" y1="147.1" x2="274.85" y2="234.72" gradientUnits="userSpaceOnUse"><stop offset="0" stop-color="#f39200"/><stop offset="1" stop-color="#e83278"/></linearGradient><linearGradient id="linear-gradient-2" x1="80.56" y1="119.83" x2="286.46" y2="207.44" xlink:href="#linear-gradient"/></defs><title>logo Quadri</title><path class="cls-1" d="M108.18,244.17l-7.59-11.49c-10.56-1.7-19.44-7.58-26.4-16C81.71,231,93.27,241.77,108.18,244.17ZM203.08,160l-.05,0c-2.24-11.26-6.77-21.76-13.74-29.84A78.52,78.52,0,0,1,197,160.73h0c-14.07,2.19-27.36,7.37-38,16.1a52,52,0,0,0-12.38,13.68l-.05,0a4.21,4.21,0,0,1,0-.5c.65-16.39-5.28-43.43-17.9-59.4l0-.06c11-13.81,27.21-20.79,46.24-11.61a44.56,44.56,0,0,1,14.4,11.19c-4.92-9.82-12.19-17.95-22-22.69-19-9.18-35.26-2.19-46.25,11.63-8.75-11.05-20.71-16.78-35.93-10-36,16-35.79,77.74-10.93,107.65-16.84-32-13.34-81.95,18.52-96.16,10.26-4.6,19-3.48,26.36,1.12a74.46,74.46,0,0,0-12,29.47c-3.95,22.05,2.58,40.09,10.76,47.69-3.87-9.18-5.75-21.84-3.17-36.2,2.1-11.73,6.87-23.07,13.69-31.79a0,0,0,0,1,0,0h0c7.6,15.46,11.11,34.8,10.61,47.63-1.45,24.55-12.25,28.6-21.13,20.36,6.34,15,18,20.7,24.39,9.45v0h0l0,.05a18.51,18.51,0,0,0,7.88,13.21c-2-9.28,2.05-21.69,16.43-33.19a89.42,89.42,0,0,1,30.32-16.1v-.06l.05.05h-.05c-1,14.34-5.42,28.05-12.92,37.92-11.82,15.43-25.4,17-33.83,11.37,3.4,15.81,24.28,22.5,41.42.12,9.83-12.94,14.36-32.51,12.9-51.41h0v0c31-6.9,65.58,1.33,86.58,26.47C278.29,171.71,239.05,156.57,203.08,160Z" transform="translate(-56.65 -41.74)"/><path class="cls-2" d="M253.3,198a10.88,10.88,0,1,1,10.88,10.88A10.88,10.88,0,0,1,253.3,198Z" transform="translate(-56.65 -41.74)"/><path class="cls-3" d="M325.23,178h-3.68v7.62a2.21,2.21,0,0,0,2.15,2.48,3.23,3.23,0,0,0,1.75-.49v2.18a8.13,8.13,0,0,1-2.18.38c-2.65,0-4.29-1.25-4.29-4V178h-3.13v-2.07H319v-3.22l2.57-.82v4h3.68Z" transform="translate(-56.65 -41.74)"/><path class="cls-3" d="M339.12,189.27a10.71,10.71,0,0,1-4.39.9c-4.94,0-7.2-3-7.2-7.53,0-4.12,2.59-7,6.52-7,4.63,0,6.14,3.39,6.14,7.86h-9.94a4.56,4.56,0,0,0,4.59,4.64,8.3,8.3,0,0,0,4.28-1.39Zm-1.66-7.72c0-2.13-1.26-3.88-3.47-3.88-2.51,0-3.55,2.08-3.74,3.88Z" transform="translate(-56.65 -41.74)"/><path class="cls-3" d="M343.62,175.93H346v2.15h.06a4.23,4.23,0,0,1,3.63-2.48,7.23,7.23,0,0,1,1.69.19v2.29a3.79,3.79,0,0,0-1.42-.24c-2.29,0-3.79,2.18-3.79,5.67v6.33h-2.57Z" transform="translate(-56.65 -41.74)"/><path class="cls-3" d="M354.24,175.93h2.4v2.15h.05a4.26,4.26,0,0,1,3.63-2.48,7.17,7.17,0,0,1,1.69.19v2.29a3.79,3.79,0,0,0-1.42-.24c-2.29,0-3.79,2.18-3.79,5.67v6.33h-2.56Z" transform="translate(-56.65 -41.74)"/><path class="cls-3" d="M375.52,189.27a10.71,10.71,0,0,1-4.39.9c-4.94,0-7.21-3-7.21-7.53,0-4.12,2.6-7,6.53-7,4.63,0,6.13,3.39,6.13,7.86h-9.93a4.55,4.55,0,0,0,4.58,4.64,8.31,8.31,0,0,0,4.29-1.39Zm-1.67-7.72c0-2.13-1.25-3.88-3.46-3.88-2.51,0-3.55,2.08-3.74,3.88Z" transform="translate(-56.65 -41.74)"/><path class="cls-3" d="M397.46,187.88h-.06a5.56,5.56,0,0,1-4.74,2.29c-4.21,0-6-3.74-6-7.53s2-7,6-7a5,5,0,0,1,4.61,2.24h.06v-8.46h2.56v20.46h-2.45Zm-4.2.22c2.89,0,4.09-2.87,4.09-5.19,0-2.59-1.34-5.24-4.12-5.24s-3.88,2.62-3.82,5.16C389.35,185,390.5,188.1,393.26,188.1Z" transform="translate(-56.65 -41.74)"/><path class="cls-3" d="M404.69,170.8h2.4v6.68h-2.4Z" transform="translate(-56.65 -41.74)"/><path class="cls-3" d="M422.53,189.27a10.71,10.71,0,0,1-4.39.9c-4.94,0-7.2-3-7.2-7.53,0-4.12,2.59-7,6.52-7,4.64,0,6.14,3.39,6.14,7.86h-9.93a4.55,4.55,0,0,0,4.58,4.64,8.3,8.3,0,0,0,4.28-1.39Zm-1.66-7.72c0-2.13-1.25-3.88-3.47-3.88-2.51,0-3.54,2.08-3.73,3.88Zm-3-11.49h3L417.29,174h-1.83Z" transform="translate(-56.65 -41.74)"/><path class="cls-3" d="M433.2,189.84h-3.05l-5-13.91H428l3.77,11.35h0l3.85-11.35h2.57Z" transform="translate(-56.65 -41.74)"/><path class="cls-3" d="M451.35,189.27a10.71,10.71,0,0,1-4.39.9c-4.94,0-7.21-3-7.21-7.53,0-4.12,2.6-7,6.53-7,4.63,0,6.13,3.39,6.13,7.86h-9.93a4.55,4.55,0,0,0,4.58,4.64,8.31,8.31,0,0,0,4.29-1.39Zm-1.67-7.72c0-2.13-1.25-3.88-3.46-3.88-2.51,0-3.55,2.08-3.74,3.88Z" transform="translate(-56.65 -41.74)"/><path class="cls-3" d="M458.91,172.82H456v-2.9h2.9Zm-2.73,3.11h2.56v13.91h-2.56Z" transform="translate(-56.65 -41.74)"/><path class="cls-3" d="M463.76,169.38h2.57v20.46h-2.57Z" transform="translate(-56.65 -41.74)"/><path class="cls-4" d="M205.43,41.74c1.47.08,2.95.16,4.42.2s3,.07,4.43.07c1.31,0,2.61,0,3.89-.07s2.59-.12,3.9-.2v.76a15.27,15.27,0,0,0-2.36.51,6.21,6.21,0,0,0-1.87,1,4.15,4.15,0,0,0-1.23,1.57,5.83,5.83,0,0,0-.43,2.42V119a6.83,6.83,0,0,0,1.55,4.73,5.37,5.37,0,0,0,1.93,1.17,15.4,15.4,0,0,0,3.26.7v.76c-1.64-.09-3.27-.16-4.88-.2s-3.25-.07-4.88-.07-3.09,0-4.59.07-3,.11-4.58.2v-.76c.86-.12,1.67-.28,2.45-.46a7,7,0,0,0,2.07-.83,3.68,3.68,0,0,0,1.39-1.53,5.63,5.63,0,0,0,.49-2.52c0-.49,0-73.78,0-73.78h-.12q-1.71,4.43-3.62,8.76T202.9,64q-1.85,4.36-3.59,8.85t-3.16,9.1H196a184.7,184.7,0,0,0-6.67-18.34c-2.51-5.91-8.08-17.65-8.08-17.65,0,2.49,1.17,43.29,1.39,46.12a8.91,8.91,0,0,0,1.59,4.52A4.84,4.84,0,0,0,186.44,98a13.85,13.85,0,0,0,3.59.61v.76c-1.71-.09-3.39-.16-5-.2s-3.32-.07-5-.07c-1.27,0-2.53,0-3.78.07s-2.5.11-3.77.2v-.76a15,15,0,0,0,2.54-.49,9.2,9.2,0,0,0,2.27-1A7.11,7.11,0,0,0,179,95.57a4.35,4.35,0,0,0,.92-2.09c.25-1.43-.15-48.29-.15-48.29a10.55,10.55,0,0,0-3.07-1.71,18.08,18.08,0,0,0-3.55-1v-.76c1.76.08,3.5.16,5.24.2s3.49.07,5.24.07c1.27,0,2.52,0,3.77-.07s2.51-.12,3.77-.2v.76a6.37,6.37,0,0,0-2.14,1,2.55,2.55,0,0,0-1,2.24,6.3,6.3,0,0,0,.34,2c.23.65.49,1.33.77,2L197.81,71q3.13-6.5,6-13t5.16-13.41a5.5,5.5,0,0,0-1.59-1.29,11.31,11.31,0,0,0-1.91-.79Z" transform="translate(-56.65 -41.74)"/><path class="cls-4" d="M296,105.87c1.47.09,2.94.16,4.43.2s2.94.07,4.42.07c1.31,0,2.6,0,3.89-.07s2.59-.11,3.9-.2v.76a13.94,13.94,0,0,0-2.36.52,5.78,5.78,0,0,0-1.87.95,4,4,0,0,0-1.23,1.57,5.8,5.8,0,0,0-.43,2.42v71.07a6.82,6.82,0,0,0,1.55,4.72A5,5,0,0,0,310.2,189a14.57,14.57,0,0,0,3.25.72v.75c-1.63-.09-3.26-.15-4.87-.2s-3.25-.07-4.88-.07-3.09,0-4.59.07-3,.11-4.58.2v-.75c.86-.13,1.67-.28,2.45-.46a7,7,0,0,0,2.07-.84,3.75,3.75,0,0,0,1.39-1.53,5.75,5.75,0,0,0,.49-2.51c0-.5,0-73.79,0-73.79h-.12q-1.73,4.44-3.62,8.76t-3.74,8.7q-1.85,4.36-3.59,8.84T286.7,146h-.14a181.1,181.1,0,0,0-6.66-18.33c-2.52-5.92-8.08-17.66-8.08-17.66,0,2.49,1.17,43.3,1.39,46.12a8.81,8.81,0,0,0,1.59,4.53,4.91,4.91,0,0,0,2.18,1.47,13.73,13.73,0,0,0,3.6.62v.75c-1.72-.09-3.41-.16-5-.2s-3.32-.07-5.05-.07c-1.27,0-2.52,0-3.77.07s-2.51.11-3.77.2v-.75a13.75,13.75,0,0,0,2.54-.5,8.52,8.52,0,0,0,2.27-1,6.92,6.92,0,0,0,1.75-1.57,4.31,4.31,0,0,0,.92-2.08c.25-1.43-.15-48.29-.15-48.29a11,11,0,0,0-3.06-1.72,18.9,18.9,0,0,0-3.56-1v-.76c1.76.09,3.5.16,5.24.2s3.48.07,5.24.07c1.27,0,2.52,0,3.77-.07s2.5-.11,3.77-.2v.76a6.42,6.42,0,0,0-2.15,1,2.58,2.58,0,0,0-1,2.24,6.36,6.36,0,0,0,.34,2c.23.65.48,1.33.77,2l8.69,21.23q3.13-6.49,6-13t5.16-13.42a5.51,5.51,0,0,0-1.6-1.28,10.2,10.2,0,0,0-1.9-.8Z" transform="translate(-56.65 -41.74)"/><path class="cls-4" d="M240.37,76.45a12.39,12.39,0,0,1,4.18,2.49,10.64,10.64,0,0,1,2.7,3.87,13.63,13.63,0,0,1,0,10,10.73,10.73,0,0,1-2.7,3.87,12.54,12.54,0,0,1-4.18,2.48,16.71,16.71,0,0,1-10.76,0,12.54,12.54,0,0,1-4.18-2.48,10.73,10.73,0,0,1-2.7-3.87,13.63,13.63,0,0,1,0-10,10.64,10.64,0,0,1,2.7-3.87,12.39,12.39,0,0,1,4.18-2.49,16.71,16.71,0,0,1,10.76,0Zm-9.47,1.81a6.93,6.93,0,0,0-2.08,2.25,10.1,10.1,0,0,0-1.23,3.09,15.13,15.13,0,0,0,.12,7.39,11.55,11.55,0,0,0,1.63,3.62,8.8,8.8,0,0,0,2.79,2.64,7.63,7.63,0,0,0,4,1,5.16,5.16,0,0,0,3-.86,7,7,0,0,0,2.09-2.24A10.54,10.54,0,0,0,242.39,92a16,16,0,0,0,.4-3.47,14.6,14.6,0,0,0-.55-3.92,12.28,12.28,0,0,0-1.66-3.59,9,9,0,0,0-2.77-2.65,7.41,7.41,0,0,0-3.93-1A5.2,5.2,0,0,0,230.9,78.26Z" transform="translate(-56.65 -41.74)"/><path class="cls-4" d="M249.27,68.91l8.94-1.3v3.25a27.7,27.7,0,0,1,3.8-2.45,8.59,8.59,0,0,1,4.11-1.17,12.6,12.6,0,0,1,3.28.42,7.82,7.82,0,0,1,2.79,1.41,7,7,0,0,1,2,2.65,10.27,10.27,0,0,1,.73,4.1V95A2.84,2.84,0,0,0,276,97.63a9.88,9.88,0,0,0,3.19,1v.76c-1.19-.09-2.46-.16-3.8-.2s-2.72-.07-4.11-.07c-.94,0-1.84,0-2.72.07s-1.73.11-2.55.2v-.74a9.28,9.28,0,0,0,3-1q1.08-.65,1.08-2.67V76.77a7.68,7.68,0,0,0-1.36-4.84,5.07,5.07,0,0,0-4.24-1.72,8.27,8.27,0,0,0-2.15.31,9.11,9.11,0,0,0-2,.83,6.75,6.75,0,0,0-1.54,1.13,1.72,1.72,0,0,0-.61,1.17V95a2.79,2.79,0,0,0,1.16,2.67,11.29,11.29,0,0,0,3.5,1v.76c-1.39-.09-2.77-.16-4.14-.2s-2.74-.07-4.13-.07c-.94,0-1.84,0-2.72.07s-1.79.11-2.73.2v-.76a10.32,10.32,0,0,0,3.19-1,2.87,2.87,0,0,0,1.1-2.68V72.37c0-1.23-.42-2-1.26-2.27a9.19,9.19,0,0,0-2.91-.43Z" transform="translate(-56.65 -41.74)"/><path class="cls-4" d="M277.45,67.54v-1a6.34,6.34,0,0,0,3.37-1,9.34,9.34,0,0,0,2.46-2.32A14.9,14.9,0,0,0,285,60.11c.47-1.14.88-2.25,1.25-3.3h.85V65.7h8.42v1.84h-8.42V99.76a13.39,13.39,0,0,0,.09,1.57,5.17,5.17,0,0,0,.37,1.38,2.41,2.41,0,0,0,.8,1,2.45,2.45,0,0,0,1.45.37,5.43,5.43,0,0,0,3.06-.81,14.58,14.58,0,0,0,2.46-2l.55.61-2,1.88a22.28,22.28,0,0,1-2.09,1.73,10.18,10.18,0,0,1-2.33,1.23,7.82,7.82,0,0,1-2.73.46q-2.56,0-3.48-1.56a7.18,7.18,0,0,1-.92-3.72V67.54Z" transform="translate(-56.65 -41.74)"/><path class="cls-4" d="M356.24,67.54v-1a6.31,6.31,0,0,0,3.37-1,9.15,9.15,0,0,0,2.45-2.32,14.49,14.49,0,0,0,1.75-3.14c.47-1.14.88-2.25,1.25-3.3h.85V65.7h8.41v1.84h-8.41V99.76a11.51,11.51,0,0,0,.1,1.57,4.52,4.52,0,0,0,.37,1.38,2.39,2.39,0,0,0,.79,1,2.45,2.45,0,0,0,1.45.37,5.46,5.46,0,0,0,3.07-.81,14.49,14.49,0,0,0,2.44-2l.56.61-2,1.88a21,21,0,0,1-2.08,1.73,10,10,0,0,1-2.33,1.23,7.82,7.82,0,0,1-2.73.46c-1.71,0-2.88-.52-3.49-1.56a7.27,7.27,0,0,1-.91-3.72V67.54Z" transform="translate(-56.65 -41.74)"/><path class="cls-4" d="M292.77,98.64a6.32,6.32,0,0,0,2.49-.49,3,3,0,0,0,1.35-1.23,4.46,4.46,0,0,0,.55-1.9q.09-1.11.09-2.52V80.08h-3l.36-1.85h2.64V71.65a21.43,21.43,0,0,1,.59-4.67,17.31,17.31,0,0,1,1.87-4.85,12,12,0,0,1,3.38-3.82,8.42,8.42,0,0,1,5.09-1.53,8.15,8.15,0,0,1,5,1.54,4.9,4.9,0,0,1,2.06,4.12,3.18,3.18,0,0,1-.49,2,2.53,2.53,0,0,1-1.91.55,1.45,1.45,0,0,1-1.3-.55,5.46,5.46,0,0,1-.37-2.52,4.37,4.37,0,0,0-.18-1.14,4.15,4.15,0,0,0-.64-1.28,3.81,3.81,0,0,0-1.23-1.08,3.9,3.9,0,0,0-1.88-.42,3.63,3.63,0,0,0-2.55.92,7,7,0,0,0-1.62,2.24,10.24,10.24,0,0,0-.84,2.79A18.22,18.22,0,0,0,302,66.5V78.23h7.79v1.85H302V92.5a19,19,0,0,0,.15,2.52,3.65,3.65,0,0,0,.83,1.9,4.22,4.22,0,0,0,2.06,1.23,14.8,14.8,0,0,0,3.9.49v.76c-1.43-.09-2.85-.16-4.24-.2s-2.8-.07-4.22-.07-2.6,0-3.86.07-2.56.11-3.87.2Z" transform="translate(-56.65 -41.74)"/><path class="cls-4" d="M329.12,76.45a12.39,12.39,0,0,1,4.18,2.49A10.79,10.79,0,0,1,336,82.81a13.76,13.76,0,0,1,0,10,10.88,10.88,0,0,1-2.71,3.87,12.54,12.54,0,0,1-4.18,2.48,16.71,16.71,0,0,1-10.76,0,12.54,12.54,0,0,1-4.18-2.48,11,11,0,0,1-2.7-3.87,13.63,13.63,0,0,1,0-10,10.89,10.89,0,0,1,2.7-3.87,12.39,12.39,0,0,1,4.18-2.49,16.71,16.71,0,0,1,10.76,0Zm-9.46,1.81a7.07,7.07,0,0,0-2.09,2.25,10.63,10.63,0,0,0-1.23,3.09,15,15,0,0,0,.13,7.39,11.53,11.53,0,0,0,1.62,3.62,8.83,8.83,0,0,0,2.8,2.64,7.57,7.57,0,0,0,4,1,5.2,5.2,0,0,0,3-.86,7,7,0,0,0,2.08-2.24A10.27,10.27,0,0,0,331.14,92a15.41,15.41,0,0,0,.4-3.47,14.22,14.22,0,0,0-.55-3.92,12,12,0,0,0-1.66-3.59,9.05,9.05,0,0,0-2.76-2.65,7.46,7.46,0,0,0-3.93-1A5.17,5.17,0,0,0,319.66,78.26Z" transform="translate(-56.65 -41.74)"/><path class="cls-4" d="M335.57,98.64a10.06,10.06,0,0,0,3.19-1c.74-.43,1.1-1.32,1.1-2.67V72.48c0-1.23-.42-2-1.25-2.27a9.25,9.25,0,0,0-2.92-.43V69l8.94-1.35v5.72c.49-.33,1.05-.76,1.69-1.29s1.31-1.06,2-1.56a15.72,15.72,0,0,1,2.18-1.33,4.71,4.71,0,0,1,2.15-.57A4.52,4.52,0,0,1,356.25,70a5.58,5.58,0,0,1,1.32,3.65l-4.91,2.58.24-.88a4.87,4.87,0,0,0,.13-1.2,2.6,2.6,0,0,0-.61-1.63,2,2,0,0,0-1.66-.77,3.91,3.91,0,0,0-1.72.43,8.82,8.82,0,0,0-1.65,1.08,16.35,16.35,0,0,0-1.51,1.38c-.46.49-.88.92-1.25,1.28V95a2.79,2.79,0,0,0,1.16,2.67,11.38,11.38,0,0,0,3.5,1v.76c-1.39-.09-2.77-.16-4.13-.2s-2.76-.07-4.14-.07c-.93,0-1.84,0-2.72.07s-1.79.11-2.73.2Z" transform="translate(-56.65 -41.74)"/><path class="cls-4" d="M223.3,120.78h.51a13.52,13.52,0,0,0,1.12,1.46,8.8,8.8,0,0,0,1.37,1.29,7.18,7.18,0,0,0,1.61.93,4.8,4.8,0,0,0,1.82.35,5.12,5.12,0,0,0,.94-.08,2.73,2.73,0,0,0,.87-.31,1.79,1.79,0,0,0,.65-.57,1.59,1.59,0,0,0,.25-.9,1.86,1.86,0,0,0-.66-1.46,6.43,6.43,0,0,0-1.63-1,20.49,20.49,0,0,0-2.12-.81,11.07,11.07,0,0,1-2.12-.89,5.77,5.77,0,0,1-1.63-1.26,2.82,2.82,0,0,1-.66-1.92,3.69,3.69,0,0,1,1.19-3,4.4,4.4,0,0,1,3-1,9.53,9.53,0,0,1,2.62.36,12.68,12.68,0,0,0,2.62.42l.22,3.79h-.48a6.45,6.45,0,0,0-.89-1.31,6.91,6.91,0,0,0-1.19-1.1,6.21,6.21,0,0,0-1.39-.79,4,4,0,0,0-1.55-.3,3.19,3.19,0,0,0-1.6.39,1.63,1.63,0,0,0-.05,2.66,8.66,8.66,0,0,0,1.62.89c.65.27,1.35.54,2.13.8a12.46,12.46,0,0,1,2.12.94,6.19,6.19,0,0,1,1.63,1.36,3.07,3.07,0,0,1,.66,2,4.6,4.6,0,0,1-.41,2,3.43,3.43,0,0,1-1.13,1.28,4.54,4.54,0,0,1-1.66.65,9.29,9.29,0,0,1-2,.2,10.75,10.75,0,0,1-3.12-.43,14,14,0,0,0-2.37-.54Z" transform="translate(-56.65 -41.74)"/><path class="cls-4" d="M316,150.08a14.51,14.51,0,0,0,.82,5.27,9.33,9.33,0,0,0,2.1,3.3,7,7,0,0,0,2.69,1.71,8,8,0,0,0,2.67.49,12.56,12.56,0,0,0,4.66-.82,11.32,11.32,0,0,0,3.87-2.61l1,1a20.21,20.21,0,0,1-5.16,4.12,13.14,13.14,0,0,1-6.32,1.43,10.38,10.38,0,0,1-4.73-1,11.12,11.12,0,0,1-3.56-2.76,11.88,11.88,0,0,1-2.25-3.93,13.74,13.74,0,0,1,0-9.07,11.88,11.88,0,0,1,2.25-3.93,11.4,11.4,0,0,1,3.56-2.76,10.51,10.51,0,0,1,4.73-1,11.14,11.14,0,0,1,7.79,2.66c2,1.79,3.18,4.45,3.62,8Zm11.95-1.84a25.54,25.54,0,0,0-.49-3,5.83,5.83,0,0,0-1-2.21,4.21,4.21,0,0,0-1.78-1.35,7.38,7.38,0,0,0-2.83-.46,4.38,4.38,0,0,0-2.35.65,6,6,0,0,0-1.84,1.65,7.27,7.27,0,0,0-1.17,2.24,7.73,7.73,0,0,0-.41,2.45Z" transform="translate(-56.65 -41.74)"/><path class="cls-4" d="M344.1,155.46a5.52,5.52,0,0,0,1.36,3.95,5,5,0,0,0,3.86,1.44,8.74,8.74,0,0,0,3.9-.94,9.17,9.17,0,0,0,2.86-2V144a7.52,7.52,0,0,0-.13-1.47,2.2,2.2,0,0,0-.61-1.19,3.94,3.94,0,0,0-1.47-.91,11,11,0,0,0-2.64-.66v-.67l9.62-.68v19.83c0,1.56.39,2.6,1.19,3.1a7,7,0,0,0,3.35.89v.61c-1.56.08-3.13.15-4.7.19s-3.11.1-4.61.18V160a30.13,30.13,0,0,1-4.51,2.79,11.48,11.48,0,0,1-5.11,1.17,7.84,7.84,0,0,1-5-1.66,6.1,6.1,0,0,1-2.08-5.09V136a2.77,2.77,0,0,0-1-2.52,8.94,8.94,0,0,0-3.55-1v-.81l9.36-.82Z" transform="translate(-56.65 -41.74)"/><path class="cls-4" d="M246.88,125.6l.39,0a52,52,0,0,1,6.86-.39c2.21,0,4.22.1,5.81.26l.37,0V125a6.75,6.75,0,0,1-2-.58,1.63,1.63,0,0,1-.67-1.55v-7.57l.73-.74a8.34,8.34,0,0,1,.87-.81,6.26,6.26,0,0,1,1-.62,2.19,2.19,0,0,1,1-.26,1.18,1.18,0,0,1,1,.46,1.46,1.46,0,0,1,.36.94,3.12,3.12,0,0,1-.07.69c-.05.19-.1.36-.15.52l2.86-1.49a3.35,3.35,0,0,0-.76-2.13,2.65,2.65,0,0,0-2.09-.78,2.83,2.83,0,0,0-1.25.32,11.42,11.42,0,0,0-1.27.78c-.41.3-.81.6-1.17.91s-.7.56-1,.75v-2l-5.2.79v.45a5.43,5.43,0,0,1,1.69.24c.49.18.73.61.73,1.33v8.26a.31.31,0,0,1,0,.08s0,0,0,0c0,.94-1.15,1.7-2.58,1.7s-2.45-.7-2.55-1.58a.31.31,0,0,1,0-.1s0,0,0,0h0c0-.12,0-.25,0-.43V111.62l-5.6.39v.4a6.31,6.31,0,0,1,1.54.37,2.54,2.54,0,0,1,.86.53,1.3,1.3,0,0,1,.35.7,4.5,4.5,0,0,1,.07.85v7.52a5.2,5.2,0,0,1-1.66,1.15,5.06,5.06,0,0,1-2.26.56,2.92,2.92,0,0,1-2.25-.84,3.23,3.23,0,0,1-.79-2.29v-9.34l-5.44.47v.47a5.19,5.19,0,0,1,2.06.57,1.6,1.6,0,0,1,.61,1.46V122a3.56,3.56,0,0,0,1.21,3,4.59,4.59,0,0,0,2.93,1,6.55,6.55,0,0,0,3-.68,18.51,18.51,0,0,0,2.61-1.61Z" transform="translate(-56.65 -41.74)"/></svg>